<svg width="186" height="32" viewBox="0 0 186 32" fill="none" xmlns="http://www.w3.org/2000/svg">
<path d="M41.9637 31.256C39.8944 31.256 38.1877 30.84 36.8437 30.008C35.4997 29.176 34.5611 28.024 34.0277 26.552C33.4944 25.0587 33.4304 23.32 33.8357 21.336L36.3637 8.6H39.5637L37.0037 21.304C36.7904 22.4347 36.7371 23.448 36.8437 24.344C36.9504 25.2187 37.2277 25.9653 37.6757 26.584C38.1237 27.1813 38.7317 27.64 39.4997 27.96C40.2677 28.2587 41.1957 28.408 42.2837 28.408C43.6277 28.408 44.7797 28.152 45.7397 27.64C46.7211 27.128 47.5317 26.3493 48.1717 25.304C48.8117 24.2587 49.2917 22.9467 49.6117 21.368L52.1717 8.6H55.3077L52.7157 21.592C52.0757 24.792 50.8491 27.2027 49.0357 28.824C47.2437 30.4453 44.8864 31.256 41.9637 31.256ZM69.0042 13.88C70.4976 13.88 71.7456 14.1787 72.7482 14.776C73.7509 15.3733 74.4442 16.248 74.8282 17.4C75.2336 18.5307 75.2762 19.896 74.9562 21.496L73.0682 31H69.9962L71.8842 21.496C72.2042 19.96 72.0549 18.7653 71.4362 17.912C70.8176 17.0587 69.7082 16.632 68.1082 16.632C66.4656 16.632 65.1002 17.08 64.0122 17.976C62.9242 18.8507 62.1989 20.2053 61.8362 22.04L60.0442 31H56.9722L60.3322 14.04H63.2762L62.3162 18.904L61.7402 17.592C62.5509 16.312 63.5749 15.3733 64.8122 14.776C66.0709 14.1787 67.4682 13.88 69.0042 13.88ZM78.7535 31L82.1135 14.04H85.1855L81.8255 31H78.7535ZM84.5455 10.776C83.9695 10.776 83.5002 10.5947 83.1375 10.232C82.7962 9.86933 82.6255 9.432 82.6255 8.92C82.6255 8.32266 82.8282 7.82133 83.2335 7.416C83.6388 6.98933 84.1722 6.776 84.8335 6.776C85.3882 6.776 85.8468 6.95733 86.2095 7.32C86.5935 7.66133 86.7855 8.07733 86.7855 8.568C86.7855 9.22933 86.5828 9.76267 86.1775 10.168C85.7722 10.5733 85.2282 10.776 84.5455 10.776Z" fill="#4B5262"/>
<path d="M96.2757 31.448C94.9957 31.448 93.7691 31.3413 92.5957 31.128C91.4224 30.936 90.3557 30.6587 89.3957 30.296C88.4357 29.912 87.6144 29.496 86.9317 29.048L89.4277 24.312C90.1957 24.7813 90.9851 25.1867 91.7957 25.528C92.6277 25.848 93.4704 26.0933 94.3237 26.264C95.1771 26.4347 96.0304 26.52 96.8837 26.52C97.6944 26.52 98.3877 26.4453 98.9637 26.296C99.5397 26.1253 99.9771 25.8907 100.276 25.592C100.574 25.2933 100.724 24.9413 100.724 24.536C100.724 24.088 100.521 23.736 100.116 23.48C99.7317 23.2027 99.2197 22.968 98.5797 22.776C97.9397 22.584 97.2251 22.392 96.4357 22.2C95.6677 21.9867 94.8891 21.7413 94.0997 21.464C93.3317 21.1653 92.6277 20.8027 91.9877 20.376C91.3477 19.928 90.8251 19.3627 90.4197 18.68C90.0357 17.9973 89.8437 17.1547 89.8437 16.152C89.8437 14.5307 90.2811 13.1227 91.1557 11.928C92.0304 10.7333 93.2677 9.80533 94.8677 9.144C96.4891 8.48267 98.3984 8.152 100.596 8.152C102.196 8.152 103.689 8.32267 105.076 8.664C106.462 8.984 107.657 9.45333 108.66 10.072L106.356 14.776C105.481 14.2213 104.51 13.8053 103.444 13.528C102.398 13.2293 101.321 13.08 100.212 13.08C99.3584 13.08 98.6224 13.176 98.0037 13.368C97.4064 13.56 96.9477 13.8267 96.6277 14.168C96.3291 14.488 96.1797 14.8507 96.1797 15.256C96.1797 15.6827 96.3717 16.0347 96.7557 16.312C97.1397 16.5893 97.6517 16.824 98.2917 17.016C98.9531 17.208 99.6677 17.4107 100.436 17.624C101.225 17.816 102.004 18.0507 102.772 18.328C103.54 18.584 104.254 18.936 104.916 19.384C105.577 19.8107 106.1 20.3547 106.484 21.016C106.868 21.6773 107.06 22.4987 107.06 23.48C107.06 25.08 106.622 26.4773 105.748 27.672C104.873 28.8667 103.625 29.7947 102.004 30.456C100.382 31.1173 98.4731 31.448 96.2757 31.448ZM118.05 31.288C116.194 31.288 114.584 30.9573 113.218 30.296C111.853 29.6347 110.786 28.7173 110.018 27.544C109.272 26.3493 108.898 24.9627 108.898 23.384C108.898 21.464 109.357 19.7573 110.274 18.264C111.192 16.7493 112.461 15.5547 114.082 14.68C115.704 13.8053 117.56 13.368 119.65 13.368C121.613 13.368 123.309 13.784 124.738 14.616C126.189 15.448 127.234 16.6 127.874 18.072L122.69 20.536C122.37 19.7253 121.912 19.1387 121.314 18.776C120.738 18.4133 120.077 18.232 119.33 18.232C118.52 18.232 117.784 18.4453 117.122 18.872C116.482 19.2773 115.981 19.832 115.618 20.536C115.256 21.24 115.074 22.072 115.074 23.032C115.074 24.0347 115.362 24.8453 115.938 25.464C116.514 26.0827 117.357 26.392 118.466 26.392C119.256 26.392 119.96 26.2213 120.578 25.88C121.218 25.5173 121.762 24.9307 122.21 24.12L126.658 26.808C125.826 28.216 124.653 29.3147 123.138 30.104C121.645 30.8933 119.949 31.288 118.05 31.288ZM137.049 31.288C135.214 31.288 133.614 30.9573 132.249 30.296C130.884 29.6347 129.828 28.7173 129.081 27.544C128.334 26.3493 127.961 24.9627 127.961 23.384C127.961 21.464 128.42 19.7573 129.337 18.264C130.254 16.7493 131.513 15.5547 133.113 14.68C134.713 13.8053 136.548 13.368 138.617 13.368C140.473 13.368 142.073 13.6987 143.417 14.36C144.782 15 145.838 15.9067 146.585 17.08C147.332 18.2533 147.705 19.64 147.705 21.24C147.705 23.16 147.246 24.8773 146.329 26.392C145.412 27.9067 144.153 29.1013 142.553 29.976C140.953 30.8507 139.118 31.288 137.049 31.288ZM137.401 26.456C138.212 26.456 138.926 26.2533 139.545 25.848C140.164 25.4213 140.644 24.8453 140.985 24.12C141.348 23.3947 141.529 22.5413 141.529 21.56C141.529 20.6 141.241 19.8 140.665 19.16C140.11 18.52 139.31 18.2 138.265 18.2C137.454 18.2 136.74 18.4027 136.121 18.808C135.502 19.2133 135.012 19.7893 134.649 20.536C134.308 21.2613 134.137 22.1147 134.137 23.096C134.137 24.12 134.425 24.9413 135.001 25.56C135.577 26.1573 136.377 26.456 137.401 26.456ZM148.698 31L152.154 13.656H157.914L156.922 18.584L156.346 17.176C157.114 15.7893 158.128 14.808 159.386 14.232C160.645 13.656 162.117 13.368 163.802 13.368L162.746 18.84C162.49 18.7973 162.256 18.776 162.042 18.776C161.829 18.7547 161.605 18.744 161.37 18.744C160.048 18.744 158.96 19.064 158.106 19.704C157.274 20.3227 156.72 21.3573 156.442 22.808L154.778 31H148.698ZM172.459 31.288C170.603 31.288 168.982 30.968 167.595 30.328C166.23 29.6667 165.163 28.7493 164.395 27.576C163.627 26.3813 163.243 24.984 163.243 23.384C163.243 21.464 163.68 19.7573 164.555 18.264C165.43 16.7493 166.656 15.5547 168.235 14.68C169.814 13.8053 171.648 13.368 173.739 13.368C175.51 13.368 177.024 13.688 178.283 14.328C179.563 14.968 180.544 15.864 181.227 17.016C181.931 18.1467 182.283 19.4693 182.283 20.984C182.283 21.496 182.251 21.9867 182.187 22.456C182.123 22.9253 182.038 23.384 181.931 23.832H168.011L168.587 20.632H179.115L176.587 21.56C176.758 20.728 176.726 20.0347 176.491 19.48C176.278 18.904 175.904 18.4667 175.371 18.168C174.859 17.848 174.219 17.688 173.451 17.688C172.47 17.688 171.659 17.9333 171.019 18.424C170.4 18.9147 169.931 19.5867 169.611 20.44C169.312 21.272 169.163 22.1787 169.163 23.16C169.163 24.3547 169.494 25.24 170.155 25.816C170.816 26.3707 171.808 26.648 173.131 26.648C173.899 26.648 174.646 26.5307 175.371 26.296C176.118 26.04 176.768 25.688 177.323 25.24L179.851 29.048C178.763 29.8587 177.579 30.4347 176.299 30.776C175.04 31.1173 173.76 31.288 172.459 31.288Z" fill="#9BA4B5"/>
<rect x="20.2941" y="8" width="8.11764" height="23" rx="3" fill="#9BA4B5"/>
<rect x="10.1471" y="16.1177" width="8.11764" height="14.8823" rx="3" fill="#9BA4B5" fill-opacity="0.75"/>
<rect y="24.2353" width="8.11764" height="6.7647" rx="3" fill="#9BA4B5" fill-opacity="0.5"/>
</svg>
